<?xml version="1.0" standalone="no"?>
<!DOCTYPE svg PUBLIC "-//W3C//DTD SVG 20010904//EN"
 "http://www.w3.org/TR/2001/REC-SVG-20010904/DTD/svg10.dtd">
<svg version="1.0" xmlns="http://www.w3.org/2000/svg"
 width="550.000000pt" height="550.000000pt" viewBox="0 0 550.000000 550.000000"
 preserveAspectRatio="xMidYMid meet">
<metadata>
Created by potrace 1.14, written by Peter Selinger 2001-2017
</metadata>
<g transform="translate(0.000000,550.000000) scale(0.100000,-0.100000)"
fill="#000000" stroke="none">
<path d="M2979 5496 c-2 -2 -33 -7 -69 -10 -152 -16 -331 -55 -435 -95 -98
-38 -110 -42 -112 -42 -2 1 -46 -22 -98 -49 -168 -88 -272 -164 -415 -305
-152 -149 -254 -312 -306 -493 -25 -86 -28 -113 -29 -242 0 -168 8 -222 55
-360 27 -80 92 -226 123 -275 6 -10 36 -58 66 -105 29 -47 57 -87 60 -90 4 -3
18 -21 31 -40 79 -117 338 -391 500 -530 41 -36 77 -68 80 -71 16 -18 240
-192 348 -271 203 -146 306 -232 407 -338 173 -180 282 -366 321 -544 12 -52
11 -174 -2 -232 -43 -206 -240 -380 -463 -410 -25 -3 -55 -8 -66 -11 -48 -11
-347 -9 -430 2 -434 61 -721 285 -850 664 -12 36 -23 69 -23 74 -1 4 -4 30 -8
58 -5 41 -10 49 -23 44 -9 -4 -92 -35 -186 -70 -93 -35 -206 -78 -250 -95 -44
-17 -84 -33 -90 -34 -5 -2 -17 -6 -25 -9 -8 -4 -42 -16 -75 -28 -76 -28 -87
-42 -81 -100 16 -160 214 -509 416 -733 47 -53 198 -203 241 -241 241 -210
568 -387 832 -451 50 -12 66 -15 112 -24 28 -5 64 -12 80 -15 65 -12 175 -20
290 -20 113 0 302 12 328 20 7 2 30 6 52 9 22 3 63 10 90 16 28 7 64 14 80 17
67 11 246 77 351 129 353 175 587 476 716 919 33 113 37 126 46 175 9 45 8
220 -1 285 -7 55 -42 206 -56 245 -90 249 -179 421 -320 615 -36 50 -68 92
-71 95 -3 3 -29 34 -59 70 -69 83 -237 250 -321 321 -79 66 -65 56 -179 140
-52 39 -100 77 -108 85 -8 8 -18 14 -23 14 -5 0 -15 6 -22 13 -7 7 -80 62
-162 122 -143 106 -267 201 -351 268 -22 17 -80 72 -130 122 -163 164 -211
308 -166 505 19 80 93 227 148 291 72 85 197 170 283 194 3 0 32 10 65 20 47
15 92 19 210 19 83 1 170 -2 195 -6 60 -10 101 -18 122 -24 10 -3 30 -8 45
-10 74 -14 346 -113 460 -168 26 -13 49 -23 51 -21 2 2 5 20 8 41 2 22 6 53 8
69 4 28 11 80 22 165 2 19 6 46 9 60 2 14 7 50 10 80 3 30 7 66 9 80 2 14 7
48 10 75 4 28 9 64 11 80 14 90 14 103 2 113 -36 29 -371 144 -487 167 -8 2
-44 10 -80 18 -36 9 -85 18 -110 22 -24 4 -47 8 -50 10 -3 1 -36 6 -73 10 -37
3 -78 9 -90 11 -27 6 -392 15 -398 10z"/>
</g>
</svg>
